<svg width="141" height="56" viewBox="0 0 141 56" fill="none" xmlns="http://www.w3.org/2000/svg">
<path d="M75.5291 26.1602L74.2046 22.3998H69.0271L67.7027 26.1602H65.3594L70.3979 12.5635H72.8616L77.8909 26.1602H75.5291ZM73.6304 20.4918L72.3429 16.787C72.2935 16.6265 72.2225 16.4011 72.1299 16.1109C72.0373 15.8145 71.9447 15.515 71.852 15.2125C71.7594 14.9037 71.6822 14.6444 71.6205 14.4344C71.5587 14.6876 71.4816 14.9716 71.3889 15.2866C71.3025 15.5953 71.2161 15.8855 71.1296 16.1572C71.0493 16.4289 70.9876 16.6388 70.9444 16.787L69.6477 20.4918H73.6304ZM90.2875 12.6191L85.5546 26.1602H83.2021L78.4692 12.6191H80.7477L83.6004 21.1031C83.6868 21.3501 83.7794 21.6496 83.8782 22.0015C83.9832 22.3535 84.0789 22.7085 84.1653 23.0666C84.258 23.4248 84.329 23.7428 84.3784 24.0206C84.4278 23.7428 84.4957 23.4248 84.5821 23.0666C84.6747 22.7085 84.7705 22.3535 84.8692 22.0015C84.968 21.6496 85.0607 21.347 85.1471 21.0938L88.0091 12.6191H90.2875ZM101.026 26.1602L99.7018 22.3998H94.5243L93.1999 26.1602H90.8566L95.8951 12.5635H98.3588L103.388 26.1602H101.026ZM99.1276 20.4918L97.8401 16.787C97.7907 16.6265 97.7197 16.4011 97.6271 16.1109C97.5345 15.8145 97.4419 15.515 97.3493 15.2125C97.2566 14.9037 97.1794 14.6444 97.1177 14.4344C97.056 14.6876 96.9788 14.9716 96.8862 15.2866C96.7997 15.5953 96.7133 15.8855 96.6268 16.1572C96.5465 16.4289 96.4848 16.6388 96.4416 16.787L95.1449 20.4918H99.1276ZM110.441 26.1602H108.208V14.5085H104.244V12.6191H114.395V14.5085H110.441V26.1602ZM125.431 26.1602L124.106 22.3998H118.929L117.604 26.1602H115.261L120.299 12.5635H122.763L127.792 26.1602H125.431ZM123.532 20.4918L122.244 16.787C122.195 16.6265 122.124 16.4011 122.031 16.1109C121.939 15.8145 121.846 15.515 121.754 15.2125C121.661 14.9037 121.584 14.6444 121.522 14.4344C121.46 14.6876 121.383 14.9716 121.29 15.2866C121.204 15.5953 121.118 15.8855 121.031 16.1572C120.951 16.4289 120.889 16.6388 120.846 16.787L119.549 20.4918H123.532ZM133.956 12.6191C135.123 12.6191 136.086 12.7611 136.845 13.0451C137.611 13.3292 138.179 13.7614 138.55 14.3418C138.926 14.9222 139.115 15.6601 139.115 16.5555C139.115 17.2223 138.991 17.7904 138.744 18.2597C138.497 18.7289 138.173 19.1179 137.772 19.4267C137.37 19.7354 136.941 19.9824 136.484 20.1676L140.328 26.1602H137.818L134.548 20.7326H132.372V26.1602H130.149V12.6191H133.956ZM133.807 14.4715H132.372V18.8987H133.909C134.941 18.8987 135.688 18.7073 136.151 18.3245C136.62 17.9417 136.855 17.3767 136.855 16.6295C136.855 15.8454 136.605 15.2896 136.104 14.9624C135.61 14.6351 134.845 14.4715 133.807 14.4715ZM72.6023 37.8061H77.6593V44.6044C76.9492 44.8391 76.2145 45.0212 75.455 45.1509C74.6955 45.2806 73.8434 45.3454 72.8987 45.3454C71.5217 45.3454 70.3547 45.0737 69.3976 44.5303C68.4467 43.9808 67.7243 43.1873 67.2303 42.15C66.7363 41.1065 66.4893 39.8499 66.4893 38.3804C66.4893 36.9664 66.7641 35.7407 67.3137 34.7033C67.8632 33.6598 68.6628 32.854 69.7125 32.286C70.7622 31.7117 72.0342 31.4246 73.5285 31.4246C74.2633 31.4246 74.9733 31.4987 75.6587 31.6469C76.3503 31.7889 76.9832 31.9865 77.5574 32.2397L76.7794 34.0735C76.3225 33.8574 75.81 33.6753 75.2419 33.5271C74.6739 33.3789 74.0842 33.3048 73.4729 33.3048C72.5035 33.3048 71.6668 33.5147 70.9629 33.9346C70.2652 34.3545 69.728 34.9472 69.3513 35.7129C68.9746 36.4724 68.7863 37.3708 68.7863 38.4081C68.7863 39.4146 68.9376 40.2976 69.2402 41.0571C69.5427 41.8166 70.0151 42.4093 70.6572 42.8354C71.3056 43.2553 72.1423 43.4652 73.1673 43.4652C73.6797 43.4652 74.1151 43.4374 74.4732 43.3819C74.8313 43.3263 75.1617 43.2645 75.4642 43.1966V39.7048H72.6023V37.8061ZM89.8615 45.1602L88.537 41.3998H83.3595L82.0351 45.1602H79.6918L84.7303 31.5635H87.194L92.2233 45.1602H89.8615ZM87.9628 39.4918L86.6753 35.787C86.6259 35.6265 86.5549 35.4011 86.4623 35.1109C86.3697 34.8145 86.2771 34.515 86.1845 34.2125C86.0918 33.9037 86.0146 33.6444 85.9529 33.4344C85.8912 33.6876 85.814 33.9716 85.7214 34.2866C85.6349 34.5953 85.5485 34.8855 85.462 35.1572C85.3817 35.4289 85.32 35.6388 85.2768 35.787L83.9801 39.4918H87.9628ZM100.424 45.1602L96.5249 33.8512H96.4416C96.4601 34.1044 96.4817 34.4502 96.5064 34.8886C96.5311 35.327 96.5527 35.7963 96.5712 36.2964C96.5898 36.7966 96.599 37.2751 96.599 37.732V45.1602H94.5799V31.6191H97.7012L101.452 42.4279H101.508L105.389 31.6191H108.501V45.1602H106.38V37.6209C106.38 37.2072 106.386 36.7595 106.398 36.2779C106.417 35.7963 106.435 35.3393 106.454 34.9071C106.479 34.4749 106.497 34.1291 106.509 33.8698H106.435L102.388 45.1602H100.424ZM120.305 45.1602H112.636V31.6191H120.305V33.49H114.859V37.167H119.962V39.0287H114.859V43.28H120.305V45.1602ZM131.618 41.4739C131.618 42.2766 131.42 42.9681 131.025 43.5486C130.636 44.129 130.074 44.5736 129.339 44.8823C128.611 45.191 127.74 45.3454 126.727 45.3454C126.233 45.3454 125.761 45.3176 125.31 45.262C124.859 45.2065 124.433 45.1262 124.032 45.0212C123.637 44.9101 123.276 44.7773 122.948 44.623V42.5297C123.498 42.7706 124.112 42.9898 124.791 43.1873C125.471 43.3788 126.162 43.4745 126.866 43.4745C127.44 43.4745 127.916 43.4004 128.293 43.2522C128.675 43.0978 128.959 42.8817 129.145 42.6038C129.33 42.3198 129.422 41.9895 129.422 41.6128C129.422 41.2115 129.314 40.8718 129.098 40.594C128.882 40.3161 128.555 40.063 128.117 39.8345C127.684 39.5999 127.141 39.3498 126.486 39.0843C126.042 38.9052 125.616 38.7014 125.208 38.473C124.807 38.2445 124.449 37.9759 124.134 37.6672C123.819 37.3585 123.569 36.9941 123.384 36.5743C123.205 36.1482 123.115 35.6481 123.115 35.0738C123.115 34.3082 123.297 33.6537 123.662 33.1103C124.032 32.5669 124.551 32.1501 125.218 31.8599C125.891 31.5697 126.675 31.4246 127.57 31.4246C128.28 31.4246 128.947 31.4987 129.571 31.6469C130.2 31.7951 130.818 32.005 131.423 32.2767L130.719 34.0643C130.163 33.8358 129.623 33.6537 129.098 33.5178C128.58 33.382 128.049 33.314 127.505 33.314C127.036 33.314 126.638 33.3851 126.31 33.5271C125.983 33.6691 125.733 33.8698 125.56 34.1291C125.394 34.3823 125.31 34.6848 125.31 35.0368C125.31 35.432 125.406 35.7654 125.597 36.0371C125.795 36.3026 126.097 36.5465 126.505 36.7688C126.919 36.9911 127.45 37.238 128.098 37.5097C128.845 37.8185 129.478 38.1426 129.997 38.4822C130.522 38.8219 130.923 39.2294 131.201 39.7048C131.479 40.1741 131.618 40.7638 131.618 41.4739Z" fill="white"/>
<ellipse cx="28.4586" cy="27.6836" rx="27.9586" ry="27.6836" fill="white"/>
<path d="M42.1643 31.0911C39.6795 31.7522 35.5043 32.3921 29.5055 33.2065C23.5067 34.0209 19.2889 31.2603 18.3078 25.7021C17.3266 20.1439 19.9075 16.5478 26.3862 15.9766C32.8649 15.4055 36.6614 15.5747 39.1516 15.8021C41.6418 16.0295 45.8862 15.5747 47.3473 22.9574C48.5257 28.9017 44.8091 30.3983 42.1696 31.0964M48.3977 21.7516C47.5979 17.9333 45.7743 14.9401 40.1754 14.4482C34.8269 13.9209 29.4355 13.9954 24.1039 14.6704C19.4436 15.3261 14.6605 18.9011 10.704 22.9098C7.0887 26.58 6.82209 39.2089 19.4969 39.833C26.4768 40.1608 32.9928 34.4916 36.6774 34.2219C40.266 33.968 36.7467 36.7974 39.8768 36.3373C43.0068 35.8772 48.0565 31.53 48.739 27.9233C48.9576 26.7493 48.8243 23.9516 48.3711 21.7781" fill="url(#paint0_radial_159_24155)"/>
<path d="M28.6278 27.1472C29.7878 27.0063 30.5249 25.2509 30.2741 23.2264C30.0233 21.2018 28.8796 19.6748 27.7195 19.8157C26.5595 19.9566 25.8225 21.712 26.0733 23.7366C26.3241 25.7611 27.4678 27.2881 28.6278 27.1472Z" stroke="#60A3EC" stroke-width="1.02825" stroke-linecap="round" stroke-linejoin="round"/>
<path d="M39.6394 26.3686C40.6549 26.4085 41.5385 24.935 41.613 23.0774C41.6875 21.2198 40.9246 19.6815 39.9091 19.6416C38.8936 19.6017 38.0099 21.0752 37.9355 22.9328C37.861 24.7904 38.6239 26.3286 39.6394 26.3686Z" stroke="#60A3EC" stroke-width="1.02825" stroke-linecap="round" stroke-linejoin="round"/>
<path d="M27.8144 24.8803C28.2086 25.6865 29.0534 25.9473 29.7014 25.463C30.3494 24.9786 30.5552 23.9324 30.161 23.1262C29.7668 22.32 28.922 22.0592 28.274 22.5435C27.626 23.0279 27.4202 24.0741 27.8144 24.8803Z" fill="#213346"/>
<path d="M39.5791 24.7098C40.0987 25.2113 40.8772 25.0743 41.318 24.4037C41.7587 23.733 41.6948 22.7828 41.1752 22.2812C40.6556 21.7797 39.8771 21.9167 39.4363 22.5873C38.9955 23.2579 39.0595 24.2082 39.5791 24.7098Z" fill="#213346"/>
<path d="M32.5007 28.8227L32.4805 28.804C33.0328 29.4514 34.0135 29.5849 34.7449 29.5413C35.4763 29.4977 36.3221 29.2004 36.8206 28.6196" stroke="#76AAE3" stroke-width="1.02825" stroke-linecap="round" stroke-linejoin="round"/>
<defs>
<radialGradient id="paint0_radial_159_24155" cx="0" cy="0" r="1" gradientUnits="userSpaceOnUse" gradientTransform="translate(28.9748 26.1019) rotate(91.1647) scale(13.7476 21.516)">
<stop stop-color="#589AE3"/>
<stop offset="1" stop-color="#81BCFF"/>
</radialGradient>
</defs>
</svg>
