<svg width="43" height="42" viewBox="0 0 43 42" fill="none" xmlns="http://www.w3.org/2000/svg">
<path fill-rule="evenodd" clip-rule="evenodd" d="M21.5 42C33.098 42 42.5 32.598 42.5 21C42.5 9.40202 33.098 0 21.5 0C9.90202 0 0.5 9.40202 0.5 21C0.5 32.598 9.90202 42 21.5 42ZM17.6507 30.625C18.1614 30.625 18.3948 30.3978 18.6769 30.1231L18.7007 30.1L21.2223 27.6481L26.4692 31.5246C27.4349 32.0574 28.1319 31.7815 28.3725 30.628L31.8174 14.3944C32.17 12.9804 31.2783 12.3391 30.3545 12.7585L10.1262 20.5584C8.74544 21.1122 8.75349 21.8826 9.87452 22.2258L15.0655 23.846L27.0833 16.2641C27.6507 15.9201 28.1713 16.1051 27.744 16.4844L18.0062 25.272L18.0079 25.2733L17.6507 30.625Z" fill="white"/>
</svg>
