<svg width="43" height="42" viewBox="0 0 43 42" fill="none" xmlns="http://www.w3.org/2000/svg">
<path fill-rule="evenodd" clip-rule="evenodd" d="M21.5 0C9.90202 0 0.5 9.40202 0.5 21C0.5 32.598 9.90202 42 21.5 42C33.098 42 42.5 32.598 42.5 21C42.5 9.40202 33.098 0 21.5 0ZM23.2105 27.629C23.0035 27.8473 22.5992 27.8914 22.5992 27.8914H21.2604C21.2604 27.8914 18.3067 28.0656 15.7047 25.4072C12.8671 22.5068 10.3615 16.7522 10.3615 16.7522C10.3615 16.7522 10.2169 16.3747 10.3736 16.193C10.55 15.9875 11.0309 15.9746 11.0309 15.9746L14.2311 15.9542C14.2311 15.9542 14.5324 16.0026 14.7483 16.1585C14.9268 16.2876 15.0265 16.5274 15.0265 16.5274C15.0265 16.5274 15.5436 17.8115 16.2284 18.9729C17.5661 21.241 18.1884 21.7368 18.642 21.4937C19.3037 21.1399 19.1054 18.2879 19.1054 18.2879C19.1054 18.2879 19.1174 17.2533 18.7723 16.792C18.505 16.4349 18.001 16.3306 17.7786 16.3016C17.5979 16.2779 17.8937 15.8671 18.2771 15.6832C18.8534 15.4068 19.8701 15.3907 21.072 15.4025C22.0087 15.4122 22.2782 15.4692 22.6441 15.5563C23.4934 15.7575 23.4669 16.4022 23.4097 17.7936C23.3926 18.2097 23.3727 18.6926 23.3727 19.2504C23.3727 19.3757 23.369 19.5093 23.3651 19.6468C23.3453 20.3596 23.3225 21.1759 23.8011 21.4797C24.0465 21.6346 24.6458 21.5023 26.1456 19.003C26.8567 17.8179 27.3891 16.4252 27.3891 16.4252C27.3891 16.4252 27.5063 16.1768 27.6871 16.0704C27.8723 15.9617 28.1221 15.9951 28.1221 15.9951L31.4899 15.9746C31.4899 15.9746 32.5022 15.8553 32.6654 16.3048C32.8375 16.7748 32.2875 17.8738 30.9114 19.6741C29.6061 21.3823 28.9709 22.0112 29.0292 22.5674C29.0718 22.9738 29.4847 23.3414 30.2771 24.0629C31.9312 25.5704 32.3745 26.3635 32.4811 26.554C32.4899 26.5698 32.4964 26.5815 32.5011 26.5891C33.2428 27.7968 31.6783 27.8914 31.6783 27.8914L28.6863 27.9323C28.6863 27.9323 28.0443 28.057 27.1985 27.487C26.7554 27.1887 26.3225 26.7015 25.9101 26.2374C25.2804 25.5287 24.6986 24.874 24.2021 25.0286C23.3683 25.2889 23.3935 27.0515 23.3935 27.0515C23.3935 27.0515 23.4001 27.429 23.2105 27.629Z" fill="white"/>
</svg>
