<svg width="43" height="42" viewBox="0 0 43 42" fill="none" xmlns="http://www.w3.org/2000/svg">
<path fill-rule="evenodd" clip-rule="evenodd" d="M21.5 0C9.90202 0 0.5 9.40202 0.5 21C0.5 32.598 9.90202 42 21.5 42C33.098 42 42.5 32.598 42.5 21C42.5 9.40202 33.098 0 21.5 0ZM30.2521 13.7805C31.2159 14.045 31.975 14.8243 32.2326 15.8139C32.7007 17.6075 32.7007 21.3498 32.7007 21.3498C32.7007 21.3498 32.7007 25.092 32.2326 26.8858C31.975 27.8754 31.2159 28.6547 30.2521 28.9193C28.5054 29.3998 21.5007 29.3998 21.5007 29.3998C21.5007 29.3998 14.496 29.3998 12.7492 28.9193C11.7853 28.6547 11.0263 27.8754 10.7687 26.8858C10.3007 25.092 10.3007 21.3498 10.3007 21.3498C10.3007 21.3498 10.3007 17.6075 10.7687 15.8139C11.0263 14.8243 11.7853 14.045 12.7492 13.7805C14.496 13.2998 21.5007 13.2998 21.5007 13.2998C21.5007 13.2998 28.5054 13.2998 30.2521 13.7805Z" fill="white"/>
<path fill-rule="evenodd" clip-rule="evenodd" d="M19.4004 25.2002V18.2002L25.0004 21.7003L19.4004 25.2002Z" fill="white"/>
</svg>
