<svg width="24" height="24" viewBox="0 0 24 24" fill="none" xmlns="http://www.w3.org/2000/svg">
<path d="M23 18.1361L23 15.0609L23 8.81438L23 5.73916C23 5.53367 22.9184 5.3366 22.7731 5.19129C22.6278 5.04599 22.4307 4.96436 22.2252 4.96436L3.75004 4.96435L3.75004 18.9109L22.2252 18.9109C22.4307 18.9109 22.6278 18.8293 22.7731 18.684C22.9184 18.5387 23 18.3416 23 18.1361Z" fill="black"/>
<path d="M1.77222 4.96436C1.56673 4.96436 1.36966 5.04599 1.22435 5.19129C1.07905 5.3366 0.997416 5.53367 0.997416 5.73916L0.997415 18.1361C0.997415 18.3416 1.07905 18.5387 1.22435 18.684C1.36966 18.8293 1.56673 18.9109 1.77222 18.9109L3.68164 18.9109L3.68164 4.96436L1.77222 4.96436ZM2.93444 11.5502L2.93444 12.325L2.15963 12.325L2.15963 11.5502L2.93444 11.5502Z" fill="black"/>
<path d="M10.75 6H8V8.75H8.78571V6.78571H10.75V6Z" fill="white"/>
<path d="M8 17H10.75V16.2143H8.78571V14.25H8V17Z" fill="white"/>
<path d="M9.57143 13.8571L13.1071 15.625L13.1071 11.7891L9.57143 10.0213L9.57143 13.8571Z" fill="white"/>
<path d="M13.5 7.17857L9.57143 9.14286L13.5 11.1071L17.4286 9.14286L13.5 7.17857Z" fill="white"/>
<path d="M17.4286 10.0213L13.8929 11.7891L13.8929 15.625L17.4286 13.8571V10.0213Z" fill="white"/>
<path d="M16.25 17H19V14.25H18.2143V16.2143H16.25V17Z" fill="white"/>
<path d="M18.2143 8.75H19V6L16.25 6V6.78571H18.2143V8.75Z" fill="white"/>
</svg>
