<svg width="58" height="57" viewBox="0 0 58 57" fill="none" xmlns="http://www.w3.org/2000/svg">
<ellipse cx="28.6853" cy="28.4031" rx="28.6853" ry="28.4031" fill="#6A35FF"/>
<path d="M42.747 31.8989C40.1976 32.5771 35.9139 33.2337 29.7592 34.0693C23.6045 34.9049 19.277 32.0725 18.2704 26.3698C17.2638 20.6672 19.9117 16.9776 26.5588 16.3916C33.2058 15.8056 37.1011 15.9792 39.656 16.2125C42.2109 16.4458 46.5657 15.9792 48.0647 23.5538C49.2737 29.6525 45.4605 31.1881 42.7525 31.9043M49.1424 22.3167C48.3218 18.3991 46.4508 15.3281 40.7064 14.8235C35.2189 14.2824 29.6874 14.3588 24.2172 15.0514C19.4357 15.7242 14.5283 19.3921 10.469 23.505C6.75973 27.2706 6.48619 40.2277 19.4904 40.868C26.6518 41.2044 33.3371 35.3878 37.1175 35.111C40.7994 34.8506 37.1886 37.7535 40.4 37.2814C43.6114 36.8094 48.7923 32.3492 49.4926 28.6487C49.7169 27.4442 49.5801 24.5739 49.1151 22.3438" fill="white"/>
<path d="M28.8593 27.8526C30.0495 27.7081 30.8057 25.907 30.5484 23.8299C30.291 21.7527 29.1176 20.186 27.9275 20.3305C26.7373 20.4751 25.9811 22.2762 26.2384 24.3533C26.4957 26.4305 27.6691 27.9972 28.8593 27.8526Z" stroke="white" stroke-width="1.05497" stroke-linecap="round" stroke-linejoin="round"/>
<path d="M40.1567 27.0541C41.1987 27.095 42.1052 25.5832 42.1816 23.6773C42.2581 21.7715 41.4754 20.1932 40.4334 20.1523C39.3915 20.1113 38.4849 21.6231 38.4085 23.529C38.3321 25.4349 39.1148 27.0131 40.1567 27.0541Z" stroke="white" stroke-width="1.05497" stroke-linecap="round" stroke-linejoin="round"/>
<path d="M28.0239 25.5268C28.4283 26.3539 29.2951 26.6216 29.96 26.1246C30.6248 25.6276 30.8359 24.5543 30.4315 23.7271C30.0271 22.9 29.1603 22.6324 28.4954 23.1293C27.8306 23.6263 27.6195 24.6997 28.0239 25.5268Z" fill="white"/>
<path d="M40.0943 25.3517C40.6274 25.8663 41.4261 25.7257 41.8784 25.0376C42.3306 24.3496 42.265 23.3746 41.7319 22.86C41.1988 22.3454 40.4 22.486 39.9478 23.174C39.4956 23.8621 39.5611 24.837 40.0943 25.3517Z" fill="white"/>
<path d="M32.8333 29.5721L32.8125 29.5529C33.3792 30.2171 34.3854 30.3541 35.1358 30.3094C35.8862 30.2647 36.754 29.9596 37.2655 29.3638" stroke="white" stroke-width="1.05497" stroke-linecap="round" stroke-linejoin="round"/>
</svg>
