<svg width="24" height="24" viewBox="0 0 24 24" fill="none" xmlns="http://www.w3.org/2000/svg">
<path d="M10.7031 8.76527C10.5135 8.84071 10.4192 9.05385 10.4907 9.24471C10.562 9.43588 10.7729 9.53475 10.9654 9.46766C11.6324 9.21718 12.3677 9.21718 13.0347 9.46766C13.2273 9.53475 13.4382 9.43588 13.5097 9.24471C13.5811 9.05385 13.4867 8.84071 13.2973 8.76527C12.4609 8.45194 11.5395 8.45194 10.7031 8.76527Z" fill="#1D1D1F"/>
<path d="M14.2425 7.95433C14.4152 7.95404 14.5655 7.83597 14.6065 7.66825C14.6475 7.50053 14.5685 7.32636 14.4153 7.24652C12.901 6.4621 11.0998 6.4621 9.58544 7.24652C9.46166 7.30541 9.37963 7.42714 9.37172 7.56395C9.36381 7.70092 9.43134 7.83099 9.54765 7.9035C9.66396 7.97631 9.81059 7.97953 9.92997 7.91229C11.2284 7.23993 12.7724 7.23993 14.0708 7.91229C14.1238 7.93998 14.1827 7.95433 14.2425 7.95433Z" fill="#1D1D1F"/>
<path d="M8.89979 6.3957C10.8047 5.23467 13.1982 5.23467 15.1031 6.3957C15.2801 6.50322 15.5109 6.44683 15.6183 6.26973C15.7258 6.09248 15.6694 5.86191 15.4923 5.75439C13.3484 4.44775 10.6545 4.44775 8.51058 5.75439C8.33348 5.86191 8.27709 6.09248 8.38461 6.26973C8.49198 6.44683 8.72284 6.50322 8.89979 6.3957Z" fill="#1D1D1F"/>
<path d="M19.6613 10.694C17.5012 10.5027 13.6163 10.4053 12 10.4053C10.3837 10.4053 6.49878 10.5027 4.33872 10.694C3.38657 10.751 2.63936 11.5326 2.625 12.4865V16.8627C2.63027 17.8549 3.43652 18.656 4.42881 18.6553H10.3088C10.5445 18.655 10.7653 18.5403 10.9012 18.3478L11.2125 17.9015C11.3527 17.7002 11.5822 17.5799 11.8274 17.5791H12.1726C12.4178 17.5799 12.6473 17.7002 12.7875 17.9015L13.0988 18.3478C13.2347 18.5403 13.4555 18.655 13.6912 18.6553H19.5712C20.5635 18.656 21.3697 17.8549 21.375 16.8627V12.4865C21.3606 11.5326 20.6134 10.751 19.6613 10.694Z" fill="#1D1D1F"/>
<path d="M22.125 12.334V17.4782C22.7862 17.3089 23.2488 16.7136 23.25 16.0311V13.7811C23.2491 13.0985 22.7862 12.5032 22.125 12.334Z" fill="#1D1D1F"/>
<path d="M0.75 13.7811V16.0311C0.751172 16.7136 1.21377 17.3089 1.875 17.4782V12.334C1.21377 12.5032 0.750879 13.0985 0.75 13.7811Z" fill="#1D1D1F"/>
</svg>
