<svg width="400" height="110" viewBox="0 0 400 110" fill="none" xmlns="http://www.w3.org/2000/svg">
<path fill-rule="evenodd" clip-rule="evenodd" d="M400 0H0V110H400V0ZM66.9053 37.3535C68.7471 36.4193 70.8558 35.9521 73.2314 35.9521C75.3669 35.9521 77.5423 36.3392 79.7578 37.1133C81.9733 37.8874 84.1755 38.7949 86.3643 39.8359L90.3682 29.7461C87.6989 28.4648 84.8962 27.4639 81.96 26.7432C79.0505 25.9958 76.141 25.6221 73.2314 25.6221C68.8005 25.6221 64.8766 26.3561 61.46 27.8242C58.0433 29.2923 55.1738 31.3743 52.8516 34.0703C50.5293 36.7663 48.7676 39.9561 47.5664 43.6396C46.3652 47.3232 45.7646 51.3805 45.7646 55.8115C45.7646 61.8174 46.6989 67.0758 48.5674 71.5869C50.4359 76.0713 53.3053 79.568 57.1758 82.0771C61.0729 84.5596 66.0378 85.8008 72.0703 85.8008C75.1934 85.8008 78.0094 85.5605 80.5186 85.0801C83.0277 84.6263 85.5768 83.8656 88.166 82.7979V72.3877C85.3633 73.3753 82.7607 74.1361 80.3584 74.6699C77.9827 75.2038 75.6071 75.4707 73.2314 75.4707C69.8148 75.4707 67.0254 74.71 64.8633 73.1885C62.7012 71.6403 61.0996 69.4115 60.0586 66.502C59.0443 63.5658 58.5371 60.029 58.5371 55.8916C58.5371 52.8219 58.8574 50.0592 59.498 47.6035C60.1387 45.1478 61.0729 43.0524 62.3008 41.3174C63.5553 39.5824 65.0902 38.2611 66.9053 37.3535ZM142.499 40.2363H129.046L111.909 61.9775V40.2363H99.6973V85H111.909V62.2979L130.207 85H144.061L124.762 61.6973L142.499 40.2363ZM162.278 57.9336V40.2363H150.467V85H165.121L185.701 53.6895C185.648 54.4902 185.554 55.6781 185.421 57.2529C185.287 58.8278 185.167 60.5094 185.061 62.2979C184.954 64.0596 184.9 65.6745 184.9 67.1426V85H196.712V40.2363H182.018L161.357 71.627C161.411 71.2266 161.491 70.4658 161.598 69.3447C161.704 68.2236 161.811 66.9557 161.918 65.541C162.025 64.1263 162.105 62.7383 162.158 61.377C162.238 59.9889 162.278 58.8411 162.278 57.9336ZM249.804 76.0713V40.2363H218.173C217.799 44.694 217.185 49.0983 216.331 53.4492C215.504 57.7734 214.409 61.8708 213.048 65.7412C211.713 69.6117 210.058 73.055 208.083 76.0713H204.319V101.056H215.29V85H245.399V101.056H256.37V76.0713H249.804ZM228.423 49.4053H237.592V76.0713H220.855C222.243 73.4554 223.418 70.7327 224.379 67.9033C225.34 65.0472 226.141 62.0843 226.781 59.0146C227.449 55.9183 227.996 52.7152 228.423 49.4053ZM306.819 40.2363H293.366L276.229 61.9775V40.2363H264.018V85H276.229V62.2979L294.527 85H308.381L289.082 61.6973L306.819 40.2363ZM346.938 43.2393C343.735 40.6234 339.131 39.3154 333.125 39.3154C329.975 39.3154 326.919 39.6758 323.956 40.3965C321.02 41.1172 318.364 42.1048 315.988 43.3594L320.032 51.6074C322.114 50.6732 324.196 49.8991 326.278 49.2852C328.36 48.6712 330.482 48.3643 332.645 48.3643C334.833 48.3643 336.542 48.9115 337.77 50.0059C338.997 51.1003 339.611 52.8219 339.611 55.1709V57.1328L331.844 57.373C325.171 57.6133 320.166 58.8678 316.829 61.1367C313.493 63.3789 311.824 66.8756 311.824 71.627C311.824 74.8568 312.425 77.526 313.626 79.6348C314.827 81.7168 316.469 83.265 318.551 84.2793C320.66 85.2936 323.035 85.8008 325.678 85.8008C328.16 85.8008 330.269 85.5605 332.004 85.0801C333.739 84.5996 335.274 83.8522 336.608 82.8379C337.943 81.8236 339.251 80.5156 340.532 78.9141H340.853L343.215 85H351.743V55.1709C351.743 49.8324 350.142 45.8551 346.938 43.2393ZM334.887 64.4199L339.611 64.2598V67.9434C339.611 70.7995 338.704 73.0016 336.889 74.5498C335.1 76.098 332.898 76.8721 330.282 76.8721C328.521 76.8721 327.092 76.485 325.998 75.7109C324.904 74.9102 324.356 73.5755 324.356 71.707C324.356 69.5716 325.117 67.8499 326.639 66.542C328.187 65.234 330.936 64.5267 334.887 64.4199Z" fill="white"/>
</svg>
