<svg width="437" height="140" viewBox="0 0 437 140" fill="none" xmlns="http://www.w3.org/2000/svg">
<path fill-rule="evenodd" clip-rule="evenodd" d="M437 0H0V140H437V0ZM72.4326 46.7051C74.4541 45.6797 76.7686 45.167 79.376 45.167C81.7197 45.167 84.1074 45.5918 86.5391 46.4414C88.9707 47.291 91.3877 48.2871 93.79 49.4297L98.1846 38.3555C95.2549 36.9492 92.1787 35.8506 88.9561 35.0596C85.7627 34.2393 82.5693 33.8291 79.376 33.8291C74.5127 33.8291 70.2061 34.6348 66.4561 36.2461C62.7061 37.8574 59.5566 40.1426 57.0078 43.1016C54.459 46.0605 52.5254 49.5615 51.207 53.6045C49.8887 57.6475 49.2295 62.1006 49.2295 66.9639C49.2295 73.5557 50.2549 79.3271 52.3057 84.2783C54.3564 89.2002 57.5059 93.0381 61.7539 95.792C66.0312 98.5166 71.4805 99.8789 78.1016 99.8789C81.5293 99.8789 84.6201 99.6152 87.374 99.0879C90.1279 98.5898 92.9258 97.7549 95.7676 96.583V85.1572C92.6914 86.2412 89.835 87.0762 87.1982 87.6621C84.5908 88.248 81.9834 88.541 79.376 88.541C75.626 88.541 72.5645 87.7061 70.1914 86.0361C67.8184 84.3369 66.0605 81.8906 64.918 78.6973C63.8047 75.4746 63.248 71.5928 63.248 67.0518C63.248 63.6826 63.5996 60.6504 64.3027 57.9551C65.0059 55.2598 66.0312 52.96 67.3789 51.0557C68.7559 49.1514 70.4404 47.7012 72.4326 46.7051ZM155.401 49.8691H140.636L121.827 73.7314V49.8691H108.424V99H121.827V74.083L141.91 99H157.115L135.934 73.4238L155.401 49.8691ZM177.11 69.293V49.8691H164.146V99H180.23L202.818 64.6348C202.76 65.5137 202.657 66.8174 202.511 68.5459C202.364 70.2744 202.232 72.1201 202.115 74.083C201.998 76.0166 201.939 77.7891 201.939 79.4004V99H214.903V49.8691H198.775L176.1 84.3223C176.158 83.8828 176.246 83.0479 176.363 81.8174C176.48 80.5869 176.598 79.1953 176.715 77.6426C176.832 76.0898 176.92 74.5664 176.979 73.0723C177.066 71.5488 177.11 70.2891 177.11 69.293ZM273.175 89.2002V49.8691H238.458C238.048 54.7617 237.374 59.5957 236.437 64.3711C235.528 69.1172 234.327 73.6143 232.833 77.8623C231.368 82.1104 229.552 85.8896 227.384 89.2002H223.253V116.622H235.294V99H268.341V116.622H280.382V89.2002H273.175ZM249.708 59.9326H259.771V89.2002H241.402C242.926 86.3291 244.215 83.3408 245.27 80.2354C246.324 77.1006 247.203 73.8486 247.906 70.4795C248.639 67.0811 249.239 63.5654 249.708 59.9326ZM335.753 49.8691H320.987L302.179 73.7314V49.8691H288.775V99H302.179V74.083L322.262 99H337.467L316.285 73.4238L335.753 49.8691ZM379.786 53.165C376.271 50.2939 371.217 48.8584 364.625 48.8584C361.168 48.8584 357.813 49.2539 354.562 50.0449C351.339 50.8359 348.424 51.9199 345.816 53.2969L350.255 62.3496C352.54 61.3242 354.825 60.4746 357.11 59.8008C359.396 59.127 361.725 58.79 364.098 58.79C366.5 58.79 368.375 59.3906 369.723 60.5918C371.07 61.793 371.744 63.6826 371.744 66.2607V68.4141L363.219 68.6777C355.895 68.9414 350.401 70.3184 346.739 72.8086C343.077 75.2695 341.246 79.1074 341.246 84.3223C341.246 87.8672 341.905 90.7969 343.224 93.1113C344.542 95.3965 346.344 97.0957 348.629 98.209C350.943 99.3223 353.551 99.8789 356.451 99.8789C359.176 99.8789 361.49 99.6152 363.395 99.0879C365.299 98.5605 366.983 97.7402 368.448 96.627C369.913 95.5137 371.349 94.0781 372.755 92.3203H373.106L375.699 99H385.06V66.2607C385.06 60.4014 383.302 56.0361 379.786 53.165ZM366.559 76.4121L371.744 76.2363V80.2793C371.744 83.4141 370.748 85.8311 368.756 87.5303C366.793 89.2295 364.376 90.0791 361.505 90.0791C359.571 90.0791 358.004 89.6543 356.803 88.8047C355.602 87.9258 355.001 86.4609 355.001 84.4102C355.001 82.0664 355.836 80.1768 357.506 78.7412C359.205 77.3057 362.223 76.5293 366.559 76.4121Z" fill="white"/>
</svg>
