<svg width="328" height="100" viewBox="0 0 328 100" fill="none" xmlns="http://www.w3.org/2000/svg">
<path fill-rule="evenodd" clip-rule="evenodd" d="M328 0H0V100H328V0ZM46.7461 33.1641C48.3633 32.3438 50.2148 31.9336 52.3008 31.9336C54.1758 31.9336 56.0859 32.2734 58.0312 32.9531C59.9766 33.6328 61.9102 34.4297 63.832 35.3438L67.3477 26.4844C65.0039 25.3594 62.543 24.4805 59.9648 23.8477C57.4102 23.1914 54.8555 22.8633 52.3008 22.8633C48.4102 22.8633 44.9648 23.5078 41.9648 24.7969C38.9648 26.0859 36.4453 27.9141 34.4062 30.2812C32.3672 32.6484 30.8203 35.4492 29.7656 38.6836C28.7109 41.918 28.1836 45.4805 28.1836 49.3711C28.1836 54.6445 29.0039 59.2617 30.6445 63.2227C32.2852 67.1602 34.8047 70.2305 38.2031 72.4336C41.625 74.6133 45.9844 75.7031 51.2812 75.7031C54.0234 75.7031 56.4961 75.4922 58.6992 75.0703C60.9023 74.6719 63.1406 74.0039 65.4141 73.0664V63.9258C62.9531 64.793 60.668 65.4609 58.5586 65.9297C56.4727 66.3984 54.3867 66.6328 52.3008 66.6328C49.3008 66.6328 46.8516 65.9648 44.9531 64.6289C43.0547 63.2695 41.6484 61.3125 40.7344 58.7578C39.8438 56.1797 39.3984 53.0742 39.3984 49.4414C39.3984 46.7461 39.6797 44.3203 40.2422 42.1641C40.8047 40.0078 41.625 38.168 42.7031 36.6445C43.8047 35.1211 45.1523 33.9609 46.7461 33.1641ZM113.121 35.6953H101.309L86.2617 54.7852V35.6953H75.5391V75H86.2617V55.0664L102.328 75H114.492L97.5469 54.5391L113.121 35.6953ZM130.488 51.2344V35.6953H120.117V75H132.984L151.055 47.5078C151.008 48.2109 150.926 49.2539 150.809 50.6367C150.691 52.0195 150.586 53.4961 150.492 55.0664C150.398 56.6133 150.352 58.0312 150.352 59.3203V75H160.723V35.6953H147.82L129.68 63.2578C129.727 62.9062 129.797 62.2383 129.891 61.2539C129.984 60.2695 130.078 59.1562 130.172 57.9141C130.266 56.6719 130.336 55.4531 130.383 54.2578C130.453 53.0391 130.488 52.0312 130.488 51.2344ZM207.34 67.1602V35.6953H179.566C179.238 39.6094 178.699 43.4766 177.949 47.2969C177.223 51.0938 176.262 54.6914 175.066 58.0898C173.895 61.4883 172.441 64.5117 170.707 67.1602H167.402V89.0977H177.035V75H203.473V89.0977H213.105V67.1602H207.34ZM188.566 43.7461H196.617V67.1602H181.922C183.141 64.8633 184.172 62.4727 185.016 59.9883C185.859 57.4805 186.562 54.8789 187.125 52.1836C187.711 49.4648 188.191 46.6523 188.566 43.7461ZM257.402 35.6953H245.59L230.543 54.7852V35.6953H219.82V75H230.543V55.0664L246.609 75H258.773L241.828 54.5391L257.402 35.6953ZM292.629 38.332C289.816 36.0352 285.773 34.8867 280.5 34.8867C277.734 34.8867 275.051 35.2031 272.449 35.8359C269.871 36.4688 267.539 37.3359 265.453 38.4375L269.004 45.6797C270.832 44.8594 272.66 44.1797 274.488 43.6406C276.316 43.1016 278.18 42.832 280.078 42.832C282 42.832 283.5 43.3125 284.578 44.2734C285.656 45.2344 286.195 46.7461 286.195 48.8086V50.5312L279.375 50.7422C273.516 50.9531 269.121 52.0547 266.191 54.0469C263.262 56.0156 261.797 59.0859 261.797 63.2578C261.797 66.0938 262.324 68.4375 263.379 70.2891C264.434 72.1172 265.875 73.4766 267.703 74.3672C269.555 75.2578 271.641 75.7031 273.961 75.7031C276.141 75.7031 277.992 75.4922 279.516 75.0703C281.039 74.6484 282.387 73.9922 283.559 73.1016C284.73 72.2109 285.879 71.0625 287.004 69.6562H287.285L289.359 75H296.848V48.8086C296.848 44.1211 295.441 40.6289 292.629 38.332ZM282.047 56.9297L286.195 56.7891V60.0234C286.195 62.5312 285.398 64.4648 283.805 65.8242C282.234 67.1836 280.301 67.8633 278.004 67.8633C276.457 67.8633 275.203 67.5234 274.242 66.8438C273.281 66.1406 272.801 64.9688 272.801 63.3281C272.801 61.4531 273.469 59.9414 274.805 58.793C276.164 57.6445 278.578 57.0234 282.047 56.9297Z" fill="white"/>
</svg>
