<svg width="487" height="140" viewBox="0 0 487 140" fill="none" xmlns="http://www.w3.org/2000/svg">
<path fill-rule="evenodd" clip-rule="evenodd" d="M487 0H0V140H487V0ZM81.5918 47.8945C83.8379 46.7552 86.4095 46.1855 89.3066 46.1855C91.9108 46.1855 94.5638 46.6576 97.2656 47.6016C99.9674 48.5456 102.653 49.6523 105.322 50.9219L110.205 38.6172C106.95 37.0547 103.532 35.834 99.9512 34.9551C96.403 34.0436 92.8548 33.5879 89.3066 33.5879C83.903 33.5879 79.1178 34.4831 74.9512 36.2734C70.7845 38.0638 67.2852 40.6029 64.4531 43.8906C61.6211 47.1784 59.4727 51.0684 58.0078 55.5605C56.543 60.0527 55.8105 65.0006 55.8105 70.4043C55.8105 77.7285 56.9499 84.1413 59.2285 89.6426C61.5072 95.1113 65.0065 99.3756 69.7266 102.436C74.4792 105.463 80.5339 106.977 87.8906 106.977C91.6992 106.977 95.1335 106.684 98.1934 106.098C101.253 105.544 104.362 104.617 107.52 103.314V90.6191C104.102 91.8236 100.928 92.7513 97.998 93.4023C95.1009 94.0534 92.2038 94.3789 89.3066 94.3789C85.14 94.3789 81.7383 93.4512 79.1016 91.5957C76.4648 89.7077 74.5117 86.9896 73.2422 83.4414C72.0052 79.8607 71.3867 75.5475 71.3867 70.502C71.3867 66.7585 71.7773 63.3893 72.5586 60.3945C73.3398 57.3997 74.4792 54.8444 75.9766 52.7285C77.5065 50.6126 79.3783 49.0013 81.5918 47.8945ZM173.779 51.4102H157.373L136.475 77.9238V51.4102H121.582V106H136.475V78.3145L158.789 106H175.684L152.148 77.582L173.779 51.4102ZM197.9 72.9922V51.4102H183.496V106H201.367L226.465 67.8164C226.4 68.793 226.286 70.2415 226.123 72.1621C225.96 74.0827 225.814 76.1335 225.684 78.3145C225.553 80.4629 225.488 82.4323 225.488 84.2227V106H239.893V51.4102H221.973L196.777 89.6914C196.842 89.2031 196.94 88.2754 197.07 86.9082C197.201 85.541 197.331 83.9948 197.461 82.2695C197.591 80.5443 197.689 78.8516 197.754 77.1914C197.852 75.4987 197.9 74.099 197.9 72.9922ZM304.639 95.1113V51.4102H266.064C265.609 56.8464 264.86 62.2174 263.818 67.5234C262.809 72.7969 261.475 77.7936 259.814 82.5137C258.187 87.2337 256.169 91.4329 253.76 95.1113H249.17V125.58H262.549V106H299.268V125.58H312.646V95.1113H304.639ZM278.564 62.5918H289.746V95.1113H269.336C271.029 91.9212 272.461 88.6009 273.633 85.1504C274.805 81.6673 275.781 78.054 276.562 74.3105C277.376 70.5345 278.044 66.6283 278.564 62.5918ZM374.17 51.4102H357.764L336.865 77.9238V51.4102H321.973V106H336.865V78.3145L359.18 106H376.074L352.539 77.582L374.17 51.4102ZM423.096 55.0723C419.189 51.8822 413.574 50.2871 406.25 50.2871C402.409 50.2871 398.682 50.7266 395.068 51.6055C391.488 52.4844 388.249 53.6888 385.352 55.2188L390.283 65.2773C392.822 64.138 395.361 63.194 397.9 62.4453C400.439 61.6966 403.027 61.3223 405.664 61.3223C408.333 61.3223 410.417 61.9896 411.914 63.3242C413.411 64.6589 414.16 66.7585 414.16 69.623V72.0156L404.688 72.3086C396.549 72.6016 390.446 74.1315 386.377 76.8984C382.308 79.6328 380.273 83.8971 380.273 89.6914C380.273 93.6302 381.006 96.8854 382.471 99.457C383.936 101.996 385.938 103.884 388.477 105.121C391.048 106.358 393.945 106.977 397.168 106.977C400.195 106.977 402.767 106.684 404.883 106.098C406.999 105.512 408.87 104.6 410.498 103.363C412.126 102.126 413.721 100.531 415.283 98.5781H415.674L418.555 106H428.955V69.623C428.955 63.1126 427.002 58.2624 423.096 55.0723ZM408.398 80.9023L414.16 80.707V85.1992C414.16 88.6823 413.053 91.3678 410.84 93.2559C408.659 95.1439 405.973 96.0879 402.783 96.0879C400.635 96.0879 398.893 95.6159 397.559 94.6719C396.224 93.6953 395.557 92.0677 395.557 89.7891C395.557 87.1849 396.484 85.0853 398.34 83.4902C400.228 81.8952 403.581 81.0326 408.398 80.9023Z" fill="white"/>
</svg>
