<svg width="21" height="21" viewBox="0 0 21 21" fill="none" xmlns="http://www.w3.org/2000/svg">
<path d="M10.5 1C8.52219 1 6.58879 1.58649 4.9443 2.6853C3.29981 3.78412 2.01809 5.3459 1.26121 7.17316C0.504333 9.00042 0.3063 11.0111 0.692152 12.9509C1.078 14.8907 2.03041 16.6725 3.42894 18.0711C4.82746 19.4696 6.60929 20.422 8.5491 20.8078C10.4889 21.1937 12.4996 20.9957 14.3268 20.2388C16.1541 19.4819 17.7159 18.2002 18.8147 16.5557C19.9135 14.9112 20.5 12.9778 20.5 11C20.4949 8.34939 19.4397 5.80881 17.5655 3.93455C15.6912 2.06028 13.1506 1.00508 10.5 1Z" fill="#E7E3F3"/>
<path d="M9.75924 17.7809C9.97851 17.9238 10.2363 18 10.5 18C10.8536 18 11.1928 17.863 11.4428 17.6192C11.6929 17.3754 11.8333 17.0448 11.8333 16.7C11.8333 16.4429 11.7551 16.1915 11.6086 15.9778C11.4621 15.764 11.2539 15.5973 11.0102 15.499C10.7666 15.4006 10.4985 15.3748 10.2399 15.425C9.98124 15.4751 9.74366 15.599 9.55719 15.7808C9.37072 15.9626 9.24373 16.1942 9.19229 16.4464C9.14084 16.6986 9.16724 16.9599 9.26816 17.1975C9.36908 17.435 9.53997 17.6381 9.75924 17.7809Z" fill="white"/>
<path d="M11.3889 12.8V12.7025C12.1231 12.5393 12.7951 12.1775 13.3277 11.6585C13.8603 11.1395 14.2318 10.4844 14.3995 9.76872C14.5672 9.05299 14.5243 8.30565 14.2758 7.61263C14.0272 6.91961 13.5831 6.30907 12.9944 5.85124C12.4058 5.3934 11.6966 5.10686 10.9483 5.02458C10.2001 4.94229 9.4432 5.0676 8.76475 5.38609C8.0863 5.70458 7.51384 6.20332 7.11319 6.82494C6.71255 7.44656 6.5 8.16582 6.5 8.89999C6.5 9.12985 6.59365 9.35028 6.76035 9.51282C6.92705 9.67535 7.15314 9.76666 7.38889 9.76666C7.62464 9.76666 7.85073 9.67535 8.01743 9.51282C8.18413 9.35028 8.27778 9.12985 8.27778 8.89999C8.27778 8.47146 8.40811 8.05256 8.65229 7.69625C8.89647 7.33995 9.24353 7.06224 9.64959 6.89825C10.0556 6.73426 10.5025 6.69135 10.9335 6.77496C11.3646 6.85856 11.7606 7.06491 12.0713 7.36792C12.3821 7.67094 12.5938 8.057 12.6795 8.47729C12.7653 8.89759 12.7213 9.33323 12.5531 9.72914C12.3849 10.125 12.1 10.4634 11.7346 10.7015C11.3692 10.9396 10.9395 11.0667 10.5 11.0667C10.2643 11.0667 10.0382 11.158 9.87146 11.3205C9.70476 11.483 9.61111 11.7035 9.61111 11.9333V12.8C9.61111 13.0298 9.70476 13.2503 9.87146 13.4128C10.0382 13.5754 10.2643 13.6667 10.5 13.6667C10.7357 13.6667 10.9618 13.5754 11.1285 13.4128C11.2952 13.2503 11.3889 13.0298 11.3889 12.8Z" fill="white"/>
</svg>
