<svg width="20" height="21" viewBox="0 0 20 21" fill="none" xmlns="http://www.w3.org/2000/svg">
<path d="M10 1C8.02219 1 6.08879 1.58649 4.4443 2.6853C2.79981 3.78412 1.51809 5.3459 0.761209 7.17316C0.00433278 9.00042 -0.1937 11.0111 0.192152 12.9509C0.578004 14.8907 1.53041 16.6725 2.92894 18.0711C4.32746 19.4696 6.10929 20.422 8.0491 20.8078C9.98891 21.1937 11.9996 20.9957 13.8268 20.2388C15.6541 19.4819 17.2159 18.2002 18.3147 16.5557C19.4135 14.9112 20 12.9778 20 11C19.9949 8.34939 18.9397 5.80881 17.0655 3.93455C15.1912 2.06028 12.6506 1.00508 10 1Z" fill="white"/>
<path d="M9.25924 17.7809C9.47851 17.9238 9.73629 18 10 18C10.3536 18 10.6928 17.863 10.9428 17.6192C11.1929 17.3754 11.3333 17.0448 11.3333 16.7C11.3333 16.4429 11.2551 16.1915 11.1086 15.9778C10.9621 15.764 10.7539 15.5973 10.5102 15.499C10.2666 15.4006 9.99852 15.3748 9.73988 15.425C9.48124 15.4751 9.24366 15.599 9.05719 15.7808C8.87072 15.9626 8.74373 16.1942 8.69229 16.4464C8.64084 16.6986 8.66724 16.9599 8.76816 17.1975C8.86908 17.435 9.03997 17.6381 9.25924 17.7809Z" fill="#DBD4F1"/>
<path d="M10.8889 12.8V12.7025C11.6231 12.5393 12.2951 12.1775 12.8277 11.6585C13.3603 11.1395 13.7318 10.4844 13.8995 9.76872C14.0672 9.05299 14.0243 8.30565 13.7758 7.61263C13.5272 6.91961 13.0831 6.30907 12.4944 5.85124C11.9058 5.3934 11.1966 5.10686 10.4483 5.02458C9.70008 4.94229 8.9432 5.0676 8.26475 5.38609C7.5863 5.70458 7.01384 6.20332 6.61319 6.82494C6.21255 7.44656 6 8.16582 6 8.89999C6 9.12985 6.09365 9.35028 6.26035 9.51282C6.42705 9.67535 6.65314 9.76666 6.88889 9.76666C7.12464 9.76666 7.35073 9.67535 7.51743 9.51282C7.68413 9.35028 7.77778 9.12985 7.77778 8.89999C7.77778 8.47146 7.90811 8.05256 8.15229 7.69625C8.39647 7.33995 8.74353 7.06224 9.14959 6.89825C9.55565 6.73426 10.0025 6.69135 10.4335 6.77496C10.8646 6.85856 11.2606 7.06491 11.5713 7.36792C11.8821 7.67094 12.0938 8.057 12.1795 8.47729C12.2653 8.89759 12.2213 9.33323 12.0531 9.72914C11.8849 10.125 11.6 10.4634 11.2346 10.7015C10.8692 10.9396 10.4395 11.0667 10 11.0667C9.76425 11.0667 9.53816 11.158 9.37146 11.3205C9.20476 11.483 9.11111 11.7035 9.11111 11.9333V12.8C9.11111 13.0298 9.20476 13.2503 9.37146 13.4128C9.53816 13.5754 9.76425 13.6667 10 13.6667C10.2357 13.6667 10.4618 13.5754 10.6285 13.4128C10.7952 13.2503 10.8889 13.0298 10.8889 12.8Z" fill="#DBD4F1"/>
</svg>
